<svg width="36" height="36" viewBox="0 0 36 36" fill="none" xmlns="http://www.w3.org/2000/svg">
<path d="M22.2 13.5C21.9283 13.0286 21.5335 12.64 21.0579 12.3758C20.5823 12.1116 20.0438 11.9817 19.5 12H16.5C15.7044 12 14.9413 12.316 14.3787 12.8786C13.8161 13.4412 13.5 14.2043 13.5 15C13.5 15.7956 13.8161 16.5587 14.3787 17.1213C14.9413 17.6839 15.7044 18 16.5 18H19.5C20.2956 18 21.0587 18.316 21.6213 18.8786C22.1839 19.4412 22.5 20.2043 22.5 21C22.5 21.7956 22.1839 22.5587 21.6213 23.1213C21.0587 23.6839 20.2956 24 19.5 24H16.5C15.9562 24.0183 15.4177 23.8884 14.9421 23.6241C14.4665 23.3599 14.0717 22.9713 13.8 22.5M18 9V12M18 24V27M31.5 18C31.5 25.4558 25.4558 31.5 18 31.5C10.5442 31.5 4.5 25.4558 4.5 18C4.5 10.5442 10.5442 4.5 18 4.5C25.4558 4.5 31.5 10.5442 31.5 18Z" stroke="#ED2547" stroke-width="2" stroke-linecap="round" stroke-linejoin="round"/>
</svg>
