<svg width="36" height="36" viewBox="0 0 36 36" fill="none" xmlns="http://www.w3.org/2000/svg">
<path d="M13.5 18L16.5 21L22.5 15M18 4.5C21.5038 7.59986 26.0767 9.21385 30.75 9C31.4304 11.3145 31.6386 13.7422 31.3622 16.1388C31.0858 18.5353 30.3305 20.8519 29.1411 22.9508C27.9518 25.0497 26.3526 26.8881 24.4387 28.3567C22.5248 29.8254 20.3352 30.8943 18 31.5C15.6648 30.8943 13.4752 29.8254 11.5613 28.3567C9.64744 26.8881 8.04829 25.0497 6.85892 22.9508C5.66955 20.8519 4.91423 18.5353 4.63784 16.1388C4.36145 13.7422 4.56964 11.3145 5.25003 9C9.92332 9.21385 14.4963 7.59986 18 4.5Z" stroke="#ED2547" stroke-width="2" stroke-linecap="round" stroke-linejoin="round"/>
</svg>
