<svg viewBox="0 0 17 20" fill="none" xmlns="http://www.w3.org/2000/svg">
<g clip-path="url(#clip0_130_9037)">
<path d="M7.81254 9.53516L0.0693359 18.3087C0.156291 18.6419 0.312553 18.9493 0.526176 19.2072C0.739799 19.4652 1.00513 19.6669 1.30188 19.7969C1.59863 19.927 1.91895 19.9819 2.23834 19.9576C2.55774 19.9332 2.86777 19.8302 3.14471 19.6564L11.8573 14.2901L7.81254 9.53516Z" fill="#EA4335"/>
<path d="M15.6423 8.04381L11.8747 5.70996L7.63379 9.7347L11.892 14.2775L15.6309 11.9686C15.9621 11.7811 16.2395 11.499 16.4331 11.1531C16.6267 10.8072 16.729 10.4105 16.729 10.0062C16.729 9.60184 16.6267 9.2052 16.4331 8.85927C16.2395 8.51334 15.9621 8.23131 15.6309 8.04374H15.6424L15.6423 8.04381Z" fill="#FBBC04"/>
<path d="M0.0692898 1.66016C0.0224865 1.84728 -0.000812122 2.04037 2.16061e-05 2.23422V17.7344C0.000506865 17.9281 0.0237831 18.1211 0.0692898 18.3085L8.07794 9.75966L0.0692898 1.66016Z" fill="#4285F4"/>
<path d="M7.87024 9.98403L11.8746 5.70962L3.1736 0.318238C2.84623 0.110893 2.47389 0.00108711 2.09452 4.3343e-06C1.15306 -0.00197446 0.325367 0.673785 0.0693359 1.65364L7.87024 9.98403Z" fill="#34A853"/>
</g>
<defs>
<clipPath id="clip0_130_9037">
<rect width="16.7289" height="20" fill="white"/>
</clipPath>
</defs>
</svg>
