<svg width="37" height="36" viewBox="0 0 37 36" fill="none" xmlns="http://www.w3.org/2000/svg">
<path d="M8 25.5C8 26.2956 8.31607 27.0587 8.87868 27.6213C9.44129 28.1839 10.2044 28.5 11 28.5C11.7956 28.5 12.5587 28.1839 13.1213 27.6213C13.6839 27.0587 14 26.2956 14 25.5C14 24.7044 13.6839 23.9413 13.1213 23.3787C12.5587 22.8161 11.7956 22.5 11 22.5C10.2044 22.5 9.44129 22.8161 8.87868 23.3787C8.31607 23.9413 8 24.7044 8 25.5ZM23 25.5C23 26.2956 23.3161 27.0587 23.8787 27.6213C24.4413 28.1839 25.2044 28.5 26 28.5C26.7956 28.5 27.5587 28.1839 28.1213 27.6213C28.6839 27.0587 29 26.2956 29 25.5C29 24.7044 28.6839 23.9413 28.1213 23.3787C27.5587 22.8161 26.7956 22.5 26 22.5C25.2044 22.5 24.4413 22.8161 23.8787 23.3787C23.3161 23.9413 23 24.7044 23 25.5Z" stroke="#ED2547" stroke-width="2" stroke-linecap="round" stroke-linejoin="round"/>
<path d="M8 25.5H5V19.5M3.5 7.5H20V16.5M20 25.5V16.5M14 25.5H23M29 25.5H32V16.5M32 16.5H20M32 16.5L27.5 9H20M5 13.5H11" stroke="#ED2547" stroke-width="2" stroke-linecap="round" stroke-linejoin="round"/>
</svg>
